<mxfile host="app.diagrams.net" agent="Mozilla/5.0 (Macintosh; Intel Mac OS X 10_15_7) AppleWebKit/537.36 (KHTML, like Gecko) Chrome/132.0.0.0 Safari/537.36" version="26.0.10">
  <diagram name="Page-1" id="-vbbx7X0CyO_kruMElBd">
    <mxGraphModel dx="666" dy="477" grid="1" gridSize="10" guides="1" tooltips="1" connect="1" arrows="1" fold="1" page="1" pageScale="1" pageWidth="827" pageHeight="1169" math="0" shadow="0">
      <root>
        <mxCell id="0" />
        <mxCell id="1" parent="0" />
        <mxCell id="HyijZ2RRig-keJu9ljYd-32" value="" style="group" vertex="1" connectable="0" parent="1">
          <mxGeometry x="150" y="190" width="250" height="179.35" as="geometry" />
        </mxCell>
        <mxCell id="HyijZ2RRig-keJu9ljYd-1" value="" style="ellipse;whiteSpace=wrap;html=1;" vertex="1" parent="HyijZ2RRig-keJu9ljYd-32">
          <mxGeometry x="15.624999999999996" width="218.74999999999997" height="160" as="geometry" />
        </mxCell>
        <mxCell id="HyijZ2RRig-keJu9ljYd-2" value="" style="ellipse;whiteSpace=wrap;html=1;" vertex="1" parent="HyijZ2RRig-keJu9ljYd-32">
          <mxGeometry x="15.624999999999996" y="17.77777777777778" width="218.74999999999997" height="142.22222222222223" as="geometry" />
        </mxCell>
        <mxCell id="HyijZ2RRig-keJu9ljYd-3" value="" style="ellipse;whiteSpace=wrap;html=1;gradientColor=none;fillColor=light-dark(#F7F7F7,#282828);" vertex="1" parent="HyijZ2RRig-keJu9ljYd-32">
          <mxGeometry x="15.624999999999996" y="17.77777777777778" width="218.74999999999997" height="124.44444444444443" as="geometry" />
        </mxCell>
        <mxCell id="HyijZ2RRig-keJu9ljYd-5" value="&lt;b&gt;0&lt;/b&gt;" style="ellipse;whiteSpace=wrap;html=1;aspect=fixed;" vertex="1" parent="HyijZ2RRig-keJu9ljYd-32">
          <mxGeometry y="62.222222222222214" width="30.681818181818176" height="30.681818181818176" as="geometry" />
        </mxCell>
        <mxCell id="HyijZ2RRig-keJu9ljYd-6" value="&lt;b&gt;6&lt;/b&gt;" style="ellipse;whiteSpace=wrap;html=1;aspect=fixed;" vertex="1" parent="HyijZ2RRig-keJu9ljYd-32">
          <mxGeometry x="218.74999999999997" y="62.222222222222214" width="30.681818181818176" height="30.681818181818176" as="geometry" />
        </mxCell>
        <mxCell id="HyijZ2RRig-keJu9ljYd-8" value="&lt;b&gt;1&lt;/b&gt;" style="ellipse;whiteSpace=wrap;html=1;aspect=fixed;" vertex="1" parent="HyijZ2RRig-keJu9ljYd-32">
          <mxGeometry x="46.875" y="17.77777777777778" width="30.681818181818176" height="30.681818181818176" as="geometry" />
        </mxCell>
        <mxCell id="HyijZ2RRig-keJu9ljYd-9" value="&lt;b&gt;11&lt;/b&gt;" style="ellipse;whiteSpace=wrap;html=1;aspect=fixed;" vertex="1" parent="HyijZ2RRig-keJu9ljYd-32">
          <mxGeometry x="46.875" y="106.66666666666667" width="30.681818181818176" height="30.681818181818176" as="geometry" />
        </mxCell>
        <mxCell id="HyijZ2RRig-keJu9ljYd-14" value="&lt;b&gt;7&lt;/b&gt;" style="ellipse;whiteSpace=wrap;html=1;aspect=fixed;" vertex="1" parent="HyijZ2RRig-keJu9ljYd-32">
          <mxGeometry x="171.875" y="106.66666666666667" width="30.681818181818176" height="30.681818181818176" as="geometry" />
        </mxCell>
        <mxCell id="HyijZ2RRig-keJu9ljYd-15" value="&lt;b&gt;9&lt;/b&gt;" style="ellipse;whiteSpace=wrap;html=1;aspect=fixed;" vertex="1" parent="HyijZ2RRig-keJu9ljYd-32">
          <mxGeometry x="109.37499999999999" y="124.44444444444443" width="30.681818181818176" height="30.681818181818176" as="geometry" />
        </mxCell>
        <mxCell id="HyijZ2RRig-keJu9ljYd-18" value="&lt;b&gt;3&lt;/b&gt;" style="ellipse;whiteSpace=wrap;html=1;aspect=fixed;" vertex="1" parent="HyijZ2RRig-keJu9ljYd-32">
          <mxGeometry x="109.37499999999999" width="30.681818181818176" height="30.681818181818176" as="geometry" />
        </mxCell>
        <mxCell id="HyijZ2RRig-keJu9ljYd-19" value="&lt;b&gt;5&lt;/b&gt;" style="ellipse;whiteSpace=wrap;html=1;aspect=fixed;" vertex="1" parent="HyijZ2RRig-keJu9ljYd-32">
          <mxGeometry x="171.875" y="17.77777777777778" width="30.681818181818176" height="30.681818181818176" as="geometry" />
        </mxCell>
        <mxCell id="HyijZ2RRig-keJu9ljYd-27" value="" style="endArrow=none;html=1;rounded=0;entryX=0;entryY=0.5;entryDx=0;entryDy=0;" edge="1" parent="HyijZ2RRig-keJu9ljYd-32" target="HyijZ2RRig-keJu9ljYd-6">
          <mxGeometry width="50" height="50" relative="1" as="geometry">
            <mxPoint x="31.249999999999993" y="80" as="sourcePoint" />
            <mxPoint x="93.75" as="targetPoint" />
          </mxGeometry>
        </mxCell>
        <mxCell id="HyijZ2RRig-keJu9ljYd-28" value="" style="endArrow=none;html=1;rounded=0;exitX=0.5;exitY=0;exitDx=0;exitDy=0;entryX=0.5;entryY=1;entryDx=0;entryDy=0;dashed=1;" edge="1" parent="HyijZ2RRig-keJu9ljYd-32" source="HyijZ2RRig-keJu9ljYd-9" target="HyijZ2RRig-keJu9ljYd-8">
          <mxGeometry width="50" height="50" relative="1" as="geometry">
            <mxPoint x="-15.624999999999996" y="142.22222222222223" as="sourcePoint" />
            <mxPoint x="62.499999999999986" y="53.333333333333336" as="targetPoint" />
          </mxGeometry>
        </mxCell>
        <mxCell id="HyijZ2RRig-keJu9ljYd-29" value="" style="endArrow=none;html=1;rounded=0;exitX=0.5;exitY=0;exitDx=0;exitDy=0;entryX=0.5;entryY=1;entryDx=0;entryDy=0;dashed=1;" edge="1" parent="HyijZ2RRig-keJu9ljYd-32" source="HyijZ2RRig-keJu9ljYd-15" target="HyijZ2RRig-keJu9ljYd-18">
          <mxGeometry width="50" height="50" relative="1" as="geometry">
            <mxPoint x="124.21874999999997" y="97.77777777777777" as="sourcePoint" />
            <mxPoint x="124.21874999999997" y="44.44444444444445" as="targetPoint" />
          </mxGeometry>
        </mxCell>
        <mxCell id="HyijZ2RRig-keJu9ljYd-31" value="" style="endArrow=none;html=1;rounded=0;entryX=0.5;entryY=1;entryDx=0;entryDy=0;dashed=1;" edge="1" parent="HyijZ2RRig-keJu9ljYd-32" source="HyijZ2RRig-keJu9ljYd-14" target="HyijZ2RRig-keJu9ljYd-19">
          <mxGeometry width="50" height="50" relative="1" as="geometry">
            <mxPoint x="296.875" y="266.6666666666667" as="sourcePoint" />
            <mxPoint x="375" y="177.7777777777778" as="targetPoint" />
          </mxGeometry>
        </mxCell>
        <mxCell id="HyijZ2RRig-keJu9ljYd-33" value="&lt;b&gt;A&lt;/b&gt;" style="text;html=1;align=center;verticalAlign=middle;resizable=0;points=[];autosize=1;strokeColor=none;fillColor=none;" vertex="1" parent="HyijZ2RRig-keJu9ljYd-32">
          <mxGeometry x="107.82608695652173" y="29.977142857142844" width="30" height="30" as="geometry" />
        </mxCell>
        <mxCell id="HyijZ2RRig-keJu9ljYd-35" value="&lt;b&gt;B&lt;/b&gt;" style="text;html=1;align=center;verticalAlign=middle;resizable=0;points=[];autosize=1;strokeColor=none;fillColor=none;" vertex="1" parent="HyijZ2RRig-keJu9ljYd-32">
          <mxGeometry x="171.86956521739128" y="45.46285714285714" width="30" height="30" as="geometry" />
        </mxCell>
        <mxCell id="HyijZ2RRig-keJu9ljYd-36" value="&lt;b&gt;C&lt;/b&gt;" style="text;html=1;align=center;verticalAlign=middle;resizable=0;points=[];autosize=1;strokeColor=none;fillColor=none;" vertex="1" parent="HyijZ2RRig-keJu9ljYd-32">
          <mxGeometry x="46.608695652173914" y="45.46285714285714" width="30" height="30" as="geometry" />
        </mxCell>
        <mxCell id="HyijZ2RRig-keJu9ljYd-37" value="&lt;b&gt;D&lt;/b&gt;" style="text;html=1;align=center;verticalAlign=middle;resizable=0;points=[];autosize=1;strokeColor=none;fillColor=none;" vertex="1" parent="HyijZ2RRig-keJu9ljYd-32">
          <mxGeometry x="101.99608695652176" y="63.887142857142834" width="30" height="30" as="geometry" />
        </mxCell>
        <mxCell id="HyijZ2RRig-keJu9ljYd-41" value="P1" style="text;html=1;align=center;verticalAlign=middle;whiteSpace=wrap;rounded=0;" vertex="1" parent="HyijZ2RRig-keJu9ljYd-32">
          <mxGeometry x="13" y="-4.2200000000000095" width="60" height="30" as="geometry" />
        </mxCell>
        <mxCell id="HyijZ2RRig-keJu9ljYd-43" value="P5&lt;div&gt;&lt;br&gt;&lt;/div&gt;" style="text;html=1;align=center;verticalAlign=middle;whiteSpace=wrap;rounded=0;" vertex="1" parent="HyijZ2RRig-keJu9ljYd-32">
          <mxGeometry x="189.43" y="10" width="40.57" height="15.78" as="geometry" />
        </mxCell>
        <mxCell id="HyijZ2RRig-keJu9ljYd-47" value="P7&lt;div&gt;&lt;br&gt;&lt;/div&gt;" style="text;html=1;align=center;verticalAlign=middle;whiteSpace=wrap;rounded=0;" vertex="1" parent="HyijZ2RRig-keJu9ljYd-32">
          <mxGeometry x="189.43" y="142.21999999999997" width="40.57" height="24.22" as="geometry" />
        </mxCell>
        <mxCell id="HyijZ2RRig-keJu9ljYd-49" value="P11&lt;div&gt;&lt;br&gt;&lt;/div&gt;" style="text;html=1;align=center;verticalAlign=middle;whiteSpace=wrap;rounded=0;" vertex="1" parent="HyijZ2RRig-keJu9ljYd-32">
          <mxGeometry x="25.680000000000035" y="147.13" width="40.57" height="24.22" as="geometry" />
        </mxCell>
        <mxCell id="HyijZ2RRig-keJu9ljYd-40" value="P0" style="text;html=1;align=center;verticalAlign=middle;whiteSpace=wrap;rounded=0;" vertex="1" parent="1">
          <mxGeometry x="105" y="253" width="60" height="30" as="geometry" />
        </mxCell>
        <mxCell id="HyijZ2RRig-keJu9ljYd-42" value="P3" style="text;html=1;align=center;verticalAlign=middle;whiteSpace=wrap;rounded=0;" vertex="1" parent="1">
          <mxGeometry x="244" y="160" width="60" height="30" as="geometry" />
        </mxCell>
        <mxCell id="HyijZ2RRig-keJu9ljYd-46" value="P6&lt;div&gt;&lt;br&gt;&lt;/div&gt;" style="text;html=1;align=center;verticalAlign=middle;whiteSpace=wrap;rounded=0;" vertex="1" parent="1">
          <mxGeometry x="400" y="258.78" width="40.57" height="24.22" as="geometry" />
        </mxCell>
        <mxCell id="HyijZ2RRig-keJu9ljYd-48" value="P9&lt;div&gt;&lt;br&gt;&lt;/div&gt;" style="text;html=1;align=center;verticalAlign=middle;whiteSpace=wrap;rounded=0;" vertex="1" parent="1">
          <mxGeometry x="254.71" y="360" width="40.57" height="24.22" as="geometry" />
        </mxCell>
      </root>
    </mxGraphModel>
  </diagram>
</mxfile>
